<mxfile host="app.diagrams.net" modified="2024-02-21T02:25:04.863Z" agent="Mozilla/5.0 (Windows NT 10.0; Win64; x64) AppleWebKit/537.36 (KHTML, like Gecko) Chrome/121.0.0.0 Safari/537.36" etag="bk7ri5WciaMvDTc6d70x" version="23.1.5" type="device">
  <diagram id="R2lEEEUBdFMjLlhIrx00" name="Page-1">
    <mxGraphModel dx="1738" dy="906" grid="1" gridSize="10" guides="1" tooltips="1" connect="1" arrows="1" fold="1" page="1" pageScale="1" pageWidth="827" pageHeight="1169" math="0" shadow="0" extFonts="Permanent Marker^https://fonts.googleapis.com/css?family=Permanent+Marker">
      <root>
        <mxCell id="0" />
        <mxCell id="1" parent="0" />
        <mxCell id="jLPljfGS4TPaZg_DiXXK-1" value="장르" style="whiteSpace=wrap;html=1;align=center;" vertex="1" parent="1">
          <mxGeometry x="520" y="320" width="100" height="40" as="geometry" />
        </mxCell>
        <mxCell id="jLPljfGS4TPaZg_DiXXK-3" value="회원" style="whiteSpace=wrap;html=1;align=center;" vertex="1" parent="1">
          <mxGeometry x="232.5" y="500" width="100" height="40" as="geometry" />
        </mxCell>
        <mxCell id="jLPljfGS4TPaZg_DiXXK-4" value="비디오" style="whiteSpace=wrap;html=1;align=center;" vertex="1" parent="1">
          <mxGeometry x="222.5" y="270" width="100" height="40" as="geometry" />
        </mxCell>
        <mxCell id="jLPljfGS4TPaZg_DiXXK-5" value="번호" style="ellipse;whiteSpace=wrap;html=1;align=center;fontStyle=4;" vertex="1" parent="1">
          <mxGeometry x="690" y="200" width="100" height="40" as="geometry" />
        </mxCell>
        <mxCell id="jLPljfGS4TPaZg_DiXXK-6" value="대여기간" style="ellipse;whiteSpace=wrap;html=1;align=center;" vertex="1" parent="1">
          <mxGeometry x="690" y="330" width="100" height="40" as="geometry" />
        </mxCell>
        <mxCell id="jLPljfGS4TPaZg_DiXXK-7" value="장르명" style="ellipse;whiteSpace=wrap;html=1;align=center;" vertex="1" parent="1">
          <mxGeometry x="690" y="270" width="100" height="40" as="geometry" />
        </mxCell>
        <mxCell id="jLPljfGS4TPaZg_DiXXK-9" value="대여비용" style="ellipse;whiteSpace=wrap;html=1;align=center;" vertex="1" parent="1">
          <mxGeometry x="690" y="400" width="100" height="40" as="geometry" />
        </mxCell>
        <mxCell id="jLPljfGS4TPaZg_DiXXK-10" value="" style="endArrow=none;html=1;rounded=0;entryX=1;entryY=0.5;entryDx=0;entryDy=0;exitX=0;exitY=0.5;exitDx=0;exitDy=0;" edge="1" parent="1" source="jLPljfGS4TPaZg_DiXXK-5" target="jLPljfGS4TPaZg_DiXXK-1">
          <mxGeometry relative="1" as="geometry">
            <mxPoint x="373" y="580" as="sourcePoint" />
            <mxPoint x="533" y="580" as="targetPoint" />
          </mxGeometry>
        </mxCell>
        <mxCell id="jLPljfGS4TPaZg_DiXXK-11" value="" style="endArrow=none;html=1;rounded=0;exitX=1;exitY=0.5;exitDx=0;exitDy=0;entryX=0;entryY=0.5;entryDx=0;entryDy=0;" edge="1" parent="1" source="jLPljfGS4TPaZg_DiXXK-1" target="jLPljfGS4TPaZg_DiXXK-7">
          <mxGeometry relative="1" as="geometry">
            <mxPoint x="373" y="580" as="sourcePoint" />
            <mxPoint x="533" y="580" as="targetPoint" />
          </mxGeometry>
        </mxCell>
        <mxCell id="jLPljfGS4TPaZg_DiXXK-12" value="" style="endArrow=none;html=1;rounded=0;exitX=1;exitY=0.5;exitDx=0;exitDy=0;entryX=0.06;entryY=0.35;entryDx=0;entryDy=0;entryPerimeter=0;" edge="1" parent="1" source="jLPljfGS4TPaZg_DiXXK-1" target="jLPljfGS4TPaZg_DiXXK-6">
          <mxGeometry relative="1" as="geometry">
            <mxPoint x="593" y="450" as="sourcePoint" />
            <mxPoint x="663" y="430" as="targetPoint" />
          </mxGeometry>
        </mxCell>
        <mxCell id="jLPljfGS4TPaZg_DiXXK-13" value="" style="endArrow=none;html=1;rounded=0;exitX=1;exitY=0.5;exitDx=0;exitDy=0;entryX=0.01;entryY=0.275;entryDx=0;entryDy=0;entryPerimeter=0;" edge="1" parent="1" source="jLPljfGS4TPaZg_DiXXK-1" target="jLPljfGS4TPaZg_DiXXK-9">
          <mxGeometry relative="1" as="geometry">
            <mxPoint x="593" y="450" as="sourcePoint" />
            <mxPoint x="664" y="480" as="targetPoint" />
          </mxGeometry>
        </mxCell>
        <mxCell id="jLPljfGS4TPaZg_DiXXK-14" value="제목" style="ellipse;whiteSpace=wrap;html=1;align=center;" vertex="1" parent="1">
          <mxGeometry x="232.5" y="160" width="100" height="40" as="geometry" />
        </mxCell>
        <mxCell id="jLPljfGS4TPaZg_DiXXK-15" value="번호" style="ellipse;whiteSpace=wrap;html=1;align=center;fontStyle=4;" vertex="1" parent="1">
          <mxGeometry x="112.5" y="160" width="100" height="40" as="geometry" />
        </mxCell>
        <mxCell id="jLPljfGS4TPaZg_DiXXK-16" value="배우" style="ellipse;whiteSpace=wrap;html=1;align=center;" vertex="1" parent="1">
          <mxGeometry x="357.5" y="160" width="100" height="40" as="geometry" />
        </mxCell>
        <mxCell id="jLPljfGS4TPaZg_DiXXK-17" value="" style="endArrow=none;html=1;rounded=0;entryX=0.5;entryY=0;entryDx=0;entryDy=0;exitX=0.5;exitY=1;exitDx=0;exitDy=0;" edge="1" parent="1" source="jLPljfGS4TPaZg_DiXXK-15" target="jLPljfGS4TPaZg_DiXXK-4">
          <mxGeometry relative="1" as="geometry">
            <mxPoint x="357.5" y="170" as="sourcePoint" />
            <mxPoint x="267.5" y="260" as="targetPoint" />
          </mxGeometry>
        </mxCell>
        <mxCell id="jLPljfGS4TPaZg_DiXXK-18" value="" style="endArrow=none;html=1;rounded=0;exitX=0.5;exitY=1;exitDx=0;exitDy=0;entryX=0.5;entryY=0;entryDx=0;entryDy=0;" edge="1" parent="1" source="jLPljfGS4TPaZg_DiXXK-14" target="jLPljfGS4TPaZg_DiXXK-4">
          <mxGeometry relative="1" as="geometry">
            <mxPoint x="172.5" y="210" as="sourcePoint" />
            <mxPoint x="272.5" y="263" as="targetPoint" />
          </mxGeometry>
        </mxCell>
        <mxCell id="jLPljfGS4TPaZg_DiXXK-19" value="" style="endArrow=none;html=1;rounded=0;entryX=0.5;entryY=0;entryDx=0;entryDy=0;exitX=0.5;exitY=1;exitDx=0;exitDy=0;" edge="1" parent="1" source="jLPljfGS4TPaZg_DiXXK-16" target="jLPljfGS4TPaZg_DiXXK-4">
          <mxGeometry relative="1" as="geometry">
            <mxPoint x="172.5" y="210" as="sourcePoint" />
            <mxPoint x="282.5" y="260" as="targetPoint" />
          </mxGeometry>
        </mxCell>
        <mxCell id="jLPljfGS4TPaZg_DiXXK-21" value="번호" style="ellipse;whiteSpace=wrap;html=1;align=center;fontStyle=4;" vertex="1" parent="1">
          <mxGeometry x="107.5" y="620" width="100" height="40" as="geometry" />
        </mxCell>
        <mxCell id="jLPljfGS4TPaZg_DiXXK-22" value="이름" style="ellipse;whiteSpace=wrap;html=1;align=center;" vertex="1" parent="1">
          <mxGeometry x="237.5" y="620" width="100" height="40" as="geometry" />
        </mxCell>
        <mxCell id="jLPljfGS4TPaZg_DiXXK-23" value="연락처" style="ellipse;whiteSpace=wrap;html=1;align=center;" vertex="1" parent="1">
          <mxGeometry x="357.5" y="620" width="100" height="40" as="geometry" />
        </mxCell>
        <mxCell id="jLPljfGS4TPaZg_DiXXK-24" value="" style="endArrow=none;html=1;rounded=0;exitX=0.5;exitY=1;exitDx=0;exitDy=0;entryX=0.5;entryY=0;entryDx=0;entryDy=0;" edge="1" parent="1" source="jLPljfGS4TPaZg_DiXXK-3" target="jLPljfGS4TPaZg_DiXXK-21">
          <mxGeometry relative="1" as="geometry">
            <mxPoint x="247.5" y="140" as="sourcePoint" />
            <mxPoint x="237.5" y="210" as="targetPoint" />
          </mxGeometry>
        </mxCell>
        <mxCell id="jLPljfGS4TPaZg_DiXXK-25" value="" style="endArrow=none;html=1;rounded=0;exitX=0.5;exitY=1;exitDx=0;exitDy=0;entryX=0.5;entryY=0;entryDx=0;entryDy=0;" edge="1" parent="1" source="jLPljfGS4TPaZg_DiXXK-3" target="jLPljfGS4TPaZg_DiXXK-22">
          <mxGeometry relative="1" as="geometry">
            <mxPoint x="277.5" y="560" as="sourcePoint" />
            <mxPoint x="167.5" y="630" as="targetPoint" />
          </mxGeometry>
        </mxCell>
        <mxCell id="jLPljfGS4TPaZg_DiXXK-26" value="" style="endArrow=none;html=1;rounded=0;exitX=0.5;exitY=1;exitDx=0;exitDy=0;entryX=0.5;entryY=0;entryDx=0;entryDy=0;" edge="1" parent="1" source="jLPljfGS4TPaZg_DiXXK-3" target="jLPljfGS4TPaZg_DiXXK-23">
          <mxGeometry relative="1" as="geometry">
            <mxPoint x="277.5" y="560" as="sourcePoint" />
            <mxPoint x="297.5" y="630" as="targetPoint" />
          </mxGeometry>
        </mxCell>
        <mxCell id="jLPljfGS4TPaZg_DiXXK-27" value="분류" style="shape=rhombus;perimeter=rhombusPerimeter;whiteSpace=wrap;html=1;align=center;" vertex="1" parent="1">
          <mxGeometry x="337.5" y="330" width="120" height="60" as="geometry" />
        </mxCell>
        <mxCell id="jLPljfGS4TPaZg_DiXXK-28" value="" style="endArrow=none;html=1;rounded=0;exitX=0;exitY=0.5;exitDx=0;exitDy=0;entryX=0.5;entryY=1;entryDx=0;entryDy=0;" edge="1" parent="1" source="jLPljfGS4TPaZg_DiXXK-27" target="jLPljfGS4TPaZg_DiXXK-4">
          <mxGeometry relative="1" as="geometry">
            <mxPoint x="420" y="500" as="sourcePoint" />
            <mxPoint x="580" y="500" as="targetPoint" />
          </mxGeometry>
        </mxCell>
        <mxCell id="jLPljfGS4TPaZg_DiXXK-29" value="N" style="resizable=0;html=1;whiteSpace=wrap;align=right;verticalAlign=bottom;" connectable="0" vertex="1" parent="jLPljfGS4TPaZg_DiXXK-28">
          <mxGeometry x="1" relative="1" as="geometry">
            <mxPoint y="20" as="offset" />
          </mxGeometry>
        </mxCell>
        <mxCell id="jLPljfGS4TPaZg_DiXXK-30" value="" style="endArrow=none;html=1;rounded=0;exitX=0;exitY=0.5;exitDx=0;exitDy=0;entryX=0.5;entryY=1;entryDx=0;entryDy=0;" edge="1" parent="1" source="jLPljfGS4TPaZg_DiXXK-1" target="jLPljfGS4TPaZg_DiXXK-27">
          <mxGeometry relative="1" as="geometry">
            <mxPoint x="340" y="370" as="sourcePoint" />
            <mxPoint x="293" y="310" as="targetPoint" />
          </mxGeometry>
        </mxCell>
        <mxCell id="jLPljfGS4TPaZg_DiXXK-32" value="대여" style="shape=rhombus;perimeter=rhombusPerimeter;whiteSpace=wrap;html=1;align=center;" vertex="1" parent="1">
          <mxGeometry x="107.5" y="380" width="120" height="60" as="geometry" />
        </mxCell>
        <mxCell id="jLPljfGS4TPaZg_DiXXK-33" value="" style="endArrow=none;html=1;rounded=0;exitX=0.5;exitY=0;exitDx=0;exitDy=0;entryX=0;entryY=0.5;entryDx=0;entryDy=0;" edge="1" parent="1" source="jLPljfGS4TPaZg_DiXXK-32" target="jLPljfGS4TPaZg_DiXXK-4">
          <mxGeometry relative="1" as="geometry">
            <mxPoint x="300" y="420" as="sourcePoint" />
            <mxPoint x="245" y="360" as="targetPoint" />
          </mxGeometry>
        </mxCell>
        <mxCell id="jLPljfGS4TPaZg_DiXXK-34" value="N" style="resizable=0;html=1;whiteSpace=wrap;align=right;verticalAlign=bottom;" connectable="0" vertex="1" parent="jLPljfGS4TPaZg_DiXXK-33">
          <mxGeometry x="1" relative="1" as="geometry">
            <mxPoint x="-10" y="10" as="offset" />
          </mxGeometry>
        </mxCell>
        <mxCell id="jLPljfGS4TPaZg_DiXXK-35" value="" style="endArrow=none;html=1;rounded=0;entryX=1;entryY=1;entryDx=0;entryDy=0;exitX=0.426;exitY=-0.014;exitDx=0;exitDy=0;exitPerimeter=0;" edge="1" parent="1" source="jLPljfGS4TPaZg_DiXXK-3" target="jLPljfGS4TPaZg_DiXXK-32">
          <mxGeometry relative="1" as="geometry">
            <mxPoint x="278" y="508" as="sourcePoint" />
            <mxPoint x="233" y="300" as="targetPoint" />
          </mxGeometry>
        </mxCell>
        <mxCell id="jLPljfGS4TPaZg_DiXXK-36" value="N" style="resizable=0;html=1;whiteSpace=wrap;align=right;verticalAlign=bottom;" connectable="0" vertex="1" parent="jLPljfGS4TPaZg_DiXXK-35">
          <mxGeometry x="1" relative="1" as="geometry">
            <mxPoint x="105" y="85" as="offset" />
          </mxGeometry>
        </mxCell>
        <mxCell id="jLPljfGS4TPaZg_DiXXK-37" value="대여날짜" style="ellipse;whiteSpace=wrap;html=1;align=center;" vertex="1" parent="1">
          <mxGeometry x="-100" y="400" width="100" height="40" as="geometry" />
        </mxCell>
        <mxCell id="jLPljfGS4TPaZg_DiXXK-38" value="반납날짜" style="ellipse;whiteSpace=wrap;html=1;align=center;" vertex="1" parent="1">
          <mxGeometry x="-100" y="460" width="100" height="40" as="geometry" />
        </mxCell>
        <mxCell id="jLPljfGS4TPaZg_DiXXK-39" value="" style="endArrow=none;html=1;rounded=0;entryX=0;entryY=0.5;entryDx=0;entryDy=0;exitX=1;exitY=0.5;exitDx=0;exitDy=0;" edge="1" parent="1" source="jLPljfGS4TPaZg_DiXXK-37" target="jLPljfGS4TPaZg_DiXXK-32">
          <mxGeometry relative="1" as="geometry">
            <mxPoint x="173" y="210" as="sourcePoint" />
            <mxPoint x="283" y="280" as="targetPoint" />
          </mxGeometry>
        </mxCell>
        <mxCell id="jLPljfGS4TPaZg_DiXXK-40" value="" style="endArrow=none;html=1;rounded=0;entryX=0;entryY=0.5;entryDx=0;entryDy=0;exitX=1;exitY=0.5;exitDx=0;exitDy=0;" edge="1" parent="1" source="jLPljfGS4TPaZg_DiXXK-38" target="jLPljfGS4TPaZg_DiXXK-32">
          <mxGeometry relative="1" as="geometry">
            <mxPoint y="370" as="sourcePoint" />
            <mxPoint x="108" y="420" as="targetPoint" />
          </mxGeometry>
        </mxCell>
        <mxCell id="jLPljfGS4TPaZg_DiXXK-41" value="대여번호" style="ellipse;whiteSpace=wrap;html=1;align=center;fontStyle=4;" vertex="1" parent="1">
          <mxGeometry x="-100" y="340" width="100" height="40" as="geometry" />
        </mxCell>
        <mxCell id="jLPljfGS4TPaZg_DiXXK-43" value="" style="endArrow=none;html=1;rounded=0;entryX=0;entryY=0.5;entryDx=0;entryDy=0;exitX=1;exitY=0.5;exitDx=0;exitDy=0;" edge="1" parent="1" source="jLPljfGS4TPaZg_DiXXK-41" target="jLPljfGS4TPaZg_DiXXK-32">
          <mxGeometry relative="1" as="geometry">
            <mxPoint x="10" y="430" as="sourcePoint" />
            <mxPoint x="108" y="420" as="targetPoint" />
          </mxGeometry>
        </mxCell>
      </root>
    </mxGraphModel>
  </diagram>
</mxfile>
